<?xml version="1.0" encoding="UTF-8"?>
<svg width="48px" height="48px" viewBox="0 0 48 48" version="1.1" xmlns="http://www.w3.org/2000/svg" xmlns:xlink="http://www.w3.org/1999/xlink">
    <!-- Generator: Sketch 49.1 (51147) - http://www.bohemiancoding.com/sketch -->
    <title>pause</title>
    <desc>Created with Sketch.</desc>
    <defs>
        <path d="M20.5714286,41.1428571 C31.9327149,41.1428571 41.1428571,31.9327149 41.1428571,20.5714286 C41.1428571,9.21014229 31.9327149,0 20.5714286,0 C9.21014229,0 0,9.21014229 0,20.5714286 C0,31.9327149 9.21014229,41.1428571 20.5714286,41.1428571 Z" id="path-1"></path>
        <filter x="-24.8%" y="-20.0%" width="149.7%" height="149.7%" filterUnits="objectBoundingBox" id="filter-2">
            <feMorphology radius="1.71428571" operator="dilate" in="SourceAlpha" result="shadowSpreadOuter1"></feMorphology>
            <feOffset dx="0" dy="2" in="shadowSpreadOuter1" result="shadowOffsetOuter1"></feOffset>
            <feGaussianBlur stdDeviation="2.5" in="shadowOffsetOuter1" result="shadowBlurOuter1"></feGaussianBlur>
            <feComposite in="shadowBlurOuter1" in2="SourceAlpha" operator="out" result="shadowBlurOuter1"></feComposite>
            <feColorMatrix values="0 0 0 0 0   0 0 0 0 0   0 0 0 0 0  0 0 0 0.1 0" type="matrix" in="shadowBlurOuter1"></feColorMatrix>
        </filter>
    </defs>
    <g id="pause" stroke="none" stroke-width="1" fill="none" fill-rule="evenodd">
        <g id="Group-3" transform="translate(3.000000, 3.000000)">
            <rect id="rect49-3" stroke="#FFFFFF" stroke-width="1.71428571" fill="#000000" opacity="0" x="1.71428571" y="0" width="41.1428571" height="41.1428571"></rect>
            <g id="Oval-31">
                <use fill="black" fill-opacity="1" filter="url(#filter-2)" xlink:href="#path-1"></use>
                <use fill-opacity="0.2" fill="#000000" fill-rule="evenodd" xlink:href="#path-1"></use>
                <path stroke="#FFFFFF" stroke-width="1.71428571" d="M20.5714286,42 C8.73675536,42 -0.857142857,32.4061018 -0.857142857,20.5714286 C-0.857142857,8.73675536 8.73675536,-0.857142857 20.5714286,-0.857142857 C32.4061018,-0.857142857 42,8.73675536 42,20.5714286 C42,32.4061018 32.4061018,42 20.5714286,42 Z"></path>
            </g>
            <path d="M14,12 L18,12 L18,30 L14,30 L14,12 Z M24,12 L28,12 L28,30 L24,30 L24,12 Z" id="Combined-Shape" fill="#FFFFFF"></path>
        </g>
    </g>
</svg>